<?xml version="1.0" standalone="no"?>
<!DOCTYPE svg PUBLIC "-//W3C//DTD SVG 20010904//EN"
 "http://www.w3.org/TR/2001/REC-SVG-20010904/DTD/svg10.dtd">
<svg version="1.0" xmlns="http://www.w3.org/2000/svg"
 width="648.000000pt" height="891.000000pt" viewBox="0 0 648.000000 891.000000"
 preserveAspectRatio="xMidYMid meet">

<g transform="translate(0.000000,891.000000) scale(0.100000,-0.100000)"
fill="#000000" stroke="none">
<path d="M2201 7994 c-155 -67 -273 -298 -302 -589 -12 -128 -2 -241 26 -273
20 -23 24 -24 57 -13 21 7 55 33 79 59 23 26 74 81 113 123 228 244 289 350
289 499 0 91 -24 146 -80 185 -44 29 -126 34 -182 9z m-13 -116 c-5 -32 -28
-35 -28 -4 0 17 5 26 16 26 10 0 14 -7 12 -22z"/>
<path d="M1097 7956 c-184 -68 -259 -344 -212 -782 8 -77 21 -175 30 -219 8
-44 22 -136 30 -205 24 -194 69 -318 136 -374 41 -35 93 -33 120 4 26 35 59
173 59 250 2 170 16 253 85 471 107 342 124 453 90 598 -45 189 -201 308 -338
257z"/>
<path d="M3264 7655 c-73 -32 -155 -172 -186 -320 -6 -27 -13 -174 -17 -325
l-6 -274 -62 -13 c-173 -35 -363 -157 -515 -330 -165 -189 -286 -423 -389
-753 -120 -383 -332 -1257 -383 -1582 -37 -236 -61 -267 -356 -473 -190 -133
-258 -196 -304 -284 -85 -162 -51 -303 96 -403 99 -68 466 -204 752 -279 83
-22 176 -47 206 -55 146 -40 342 -69 543 -80 l129 -7 -6 -42 c-19 -124 -2
-331 34 -429 25 -64 96 -149 151 -177 46 -23 163 -49 222 -49 52 0 288 35 342
51 139 40 242 136 291 269 31 88 37 256 12 370 -5 23 90 29 607 39 475 9 568
17 745 65 90 24 185 63 183 75 -2 6 8 11 21 11 51 0 152 116 227 260 l34 65
-3 149 c-2 159 -16 236 -57 315 -48 96 -146 184 -308 279 -138 81 -270 185
-306 240 -46 72 -59 122 -71 267 -16 202 -38 363 -85 615 -8 47 -20 112 -26
145 -32 190 -68 330 -153 587 -112 338 -180 487 -289 628 -103 133 -222 241
-387 350 -132 87 -209 121 -377 169 -21 6 -22 10 -27 252 -8 329 -26 447 -89
591 -40 89 -110 119 -193 83z m133 -95 c53 -112 65 -149 78 -251 8 -59 18
-213 21 -340 7 -219 6 -232 -10 -226 -10 4 -100 7 -201 7 l-183 0 4 188 c6
262 11 320 35 412 26 102 69 186 116 228 31 28 44 32 78 30 37 -3 42 -7 62
-48z m43 -864 c222 -15 493 -152 723 -365 43 -40 148 -170 189 -232 89 -137
169 -340 277 -699 63 -212 78 -280 135 -615 14 -82 30 -177 36 -210 13 -77 28
-207 41 -360 5 -66 17 -142 26 -170 19 -59 69 -139 109 -177 44 -40 172 -129
271 -188 192 -115 286 -217 317 -347 10 -41 17 -120 19 -198 2 -123 0 -133
-25 -187 -38 -82 -83 -146 -144 -204 -76 -73 -190 -112 -474 -165 -42 -7 -214
-13 -478 -15 -227 -2 -448 -8 -490 -13 -200 -26 -457 -33 -897 -27 -467 8
-585 14 -745 41 -134 22 -161 28 -315 75 -38 12 -90 26 -115 30 -119 22 -294
81 -587 197 -92 37 -197 114 -228 168 -49 83 -25 214 56 308 39 46 174 153
284 227 139 93 196 144 250 225 41 60 58 97 65 136 24 145 62 348 70 379 10
42 23 94 50 215 49 216 64 281 111 465 176 700 263 947 424 1195 103 161 177
239 333 357 102 77 164 107 268 134 69 17 254 33 329 28 22 -2 74 -6 115 -8z
m331 -4254 c6 -18 11 -82 11 -142 0 -172 -49 -286 -155 -359 -76 -52 -141 -71
-355 -102 -205 -29 -358 32 -411 165 -35 86 -76 413 -58 460 5 12 76 14 481
13 l476 -2 11 -33z"/>
<path d="M1810 6721 c-79 -16 -120 -60 -120 -129 0 -59 29 -105 84 -131 121
-59 251 19 222 134 -12 46 -110 139 -143 134 -4 -1 -24 -4 -43 -8z"/>
<path d="M1335 6051 c-22 -10 -53 -29 -70 -43 -16 -14 -40 -28 -53 -32 -32
-11 -54 -61 -60 -138 -8 -120 46 -189 162 -204 126 -18 276 115 276 243 0 75
-41 147 -102 179 -37 19 -105 17 -153 -5z"/>
</g>
</svg>
